# xmcd
#
# Track frame offsets: 
#        150
#        7678
#        23191
#        45169
#        66422
#        75408
#        80961
#        100576
#        114964
#        128948
#        147231
#        166247
#        174065
#        185253
#        190701
#        202600
#        219585
#        237707
#
# Disc length: 3467 seconds
#
# Revision: 3
# Processed by: cddbd v1.5.2PL0 Copyright (c) Steve Scherf et al.
# Submitted via: ExactAudioCopyFreeDBPlugin 1.0
#
DISCID=db0d8912
DTITLE=Gym Class Heroes - The Papercut Chronicles
DYEAR=2005
DGENRE=Hip-Hop
TTITLE0=Za Intro
TTITLE1=Papercuts
TTITLE2=Petrified Life And The Twice Told Joke (Decrepit Bricks)
TTITLE3=Make Out Club
TTITLE4=Taxi Driver
TTITLE5=So Long Friend
TTITLE6=Everyday's Forecast
TTITLE7=Pillmatic
TTITLE8=Simple Livin'
TTITLE9=Cupid's Chokehold Feat. Patrick Stump
TTITLE10=Faces In The Hall
TTITLE11=Graduation Day
TTITLE12=Apollo 3-1-5
TTITLE13=Wejusfreestylin'Pt2
TTITLE14=To Bob Ross With Love
TTITLE15=Papercuts (The Reason For The Lesions Remix By Mr. Dibbs)
TTITLE16=Kid Nothing Vs. The Echo Factor
TTITLE17=Band Aids
EXTD=
EXTT0=
EXTT1=
EXTT2=
EXTT3=
EXTT4=
EXTT5=
EXTT6=
EXTT7=
EXTT8=
EXTT9=
EXTT10=
EXTT11=
EXTT12=
EXTT13=
EXTT14=
EXTT15=
EXTT16=
EXTT17=
PLAYORDER=
